<svg width="186" height="50" viewBox="0 0 186 50" fill="none" xmlns="http://www.w3.org/2000/svg">
<g clip-path="url(#clip0)">
<path d="M4.52067 35.1223V45.2182H0.979004V18.912C3.67067 18.7698 5.37067 18.7698 5.93734 18.7698C13.5873 18.7698 17.4123 21.3293 17.4123 26.4484C17.4123 32.4206 14.0123 35.4067 7.354 35.4067C6.78734 35.2645 5.93734 35.2645 4.52067 35.1223ZM4.52067 22.0403V31.8518C6.079 31.994 6.78734 31.994 6.929 31.994C11.3207 31.994 13.5873 30.1454 13.5873 26.7327C13.5873 23.4622 11.179 21.8981 6.504 21.8981C6.079 21.8981 5.37067 22.0403 4.52067 22.0403Z" fill="#020203"/>
<path d="M35.5456 35.9755H21.6623C21.6623 38.2506 22.2289 39.957 23.5039 41.2368C24.6373 42.3743 26.0539 42.8009 27.7539 42.8009C29.7373 42.8009 31.2956 42.2321 32.7123 41.0946L34.1289 43.5119C33.5623 44.0807 32.8539 44.5073 31.7206 44.9338C30.3039 45.5026 28.8873 45.6448 27.1873 45.6448C24.7789 45.6448 22.6539 44.7917 20.9539 43.2275C19.1123 41.379 18.1206 38.9616 18.1206 35.8333C18.1206 32.705 19.1123 30.1455 20.9539 28.1547C22.6539 26.4484 24.7789 25.5952 27.0456 25.5952C29.7373 25.5952 32.0039 26.3062 33.5623 27.8703C35.1206 29.2923 35.8289 31.283 35.8289 33.8426C35.8289 34.5536 35.6873 35.2645 35.5456 35.9755ZM27.1873 28.4391C25.6289 28.4391 24.3539 28.8657 23.3623 29.8611C22.3706 30.8565 21.8039 31.994 21.6623 33.416H32.4289C32.4289 31.994 32.0039 30.8565 31.1539 30.0033C30.1623 29.0079 28.8873 28.4391 27.1873 28.4391Z" fill="#020203"/>
<path d="M40.504 28.7235H38.2373V26.0217H40.504V22.0403L43.904 20.7605V26.1639H49.1456V28.8657H43.904V38.3928C43.904 39.9569 44.1873 41.0945 44.754 41.8055C45.3206 42.5165 46.1706 42.8009 47.4456 42.8009C48.2956 42.8009 49.2873 42.5165 50.1373 42.0899L50.704 45.076C49.2873 45.5026 47.729 45.6448 46.029 45.6448C44.4706 45.6448 43.1956 45.076 42.204 43.9384C41.2123 42.8009 40.6456 41.3789 40.6456 39.6726V28.7235H40.504Z" fill="#020203"/>
<path d="M64.0207 29.2923C63.3123 28.7235 62.604 28.4391 61.754 28.4391C60.479 28.4391 59.4873 29.0079 58.6373 30.1455C57.7873 31.2831 57.2207 32.5628 57.2207 34.127V45.2182H53.8207V26.0218H57.2207V29.0079C58.4957 26.7328 60.3373 25.5952 62.7457 25.5952C63.3123 25.5952 64.1623 25.7374 65.4373 25.8796L64.0207 29.2923Z" fill="#020203"/>
<path d="M66.429 35.5489C66.429 32.5628 67.279 30.1455 68.8373 28.2969C70.3956 26.4484 72.5206 25.5952 75.2123 25.5952C77.904 25.5952 80.1706 26.4484 81.5873 28.2969C83.1456 30.0033 83.854 32.5628 83.854 35.5489C83.854 38.6772 83.004 41.0946 81.4456 42.9431C79.8873 44.7917 77.7623 45.6448 75.0706 45.6448C72.379 45.6448 70.254 44.7917 68.6956 42.9431C67.279 41.0946 66.429 38.6772 66.429 35.5489ZM70.1123 35.5489C70.1123 40.3836 71.8123 42.8009 75.2123 42.8009C76.7706 42.8009 78.0456 42.0899 78.8956 40.8102C79.7456 39.5304 80.3123 37.8241 80.3123 35.5489C80.3123 30.7143 78.6123 28.4391 75.2123 28.4391C73.654 28.4391 72.379 29.0079 71.529 30.2877C70.5373 31.5674 70.1123 33.416 70.1123 35.5489Z" fill="#020203"/>
<path d="M97.7373 21.1871C97.0289 20.9028 96.3206 20.7606 95.7539 20.7606C94.7623 20.7606 93.9123 21.1871 93.2039 21.8981C92.4956 22.7513 92.2123 23.6045 92.2123 24.8842C92.2123 25.1686 92.2123 25.5952 92.3539 25.8796H96.1789V28.7235H92.3539V45.0761H88.9539V28.8657H86.1206V26.0218H88.9539C88.9539 23.6045 89.5206 21.6137 90.7956 20.1918C92.0706 18.7698 93.6289 18.0588 95.6123 18.0588C96.6039 18.0588 97.7373 18.201 98.8706 18.6276L97.7373 21.1871Z" fill="#020203"/>
<path d="M111.621 43.0853C110.204 44.7917 108.079 45.6448 105.387 45.6448C103.829 45.6448 102.554 45.076 101.421 44.0807C100.287 42.9431 99.7207 41.6633 99.7207 39.957C99.7207 37.9663 100.571 36.4021 102.271 34.9801C103.971 33.7004 106.237 32.9894 108.787 32.9894C109.496 32.9894 110.346 33.1316 111.196 33.416C111.196 30.2877 109.779 28.7235 106.946 28.7235C104.821 28.7235 103.121 29.2923 101.987 30.4299L100.571 27.586C101.137 27.0172 102.129 26.5906 103.262 26.164C104.396 25.7374 105.529 25.5952 106.521 25.5952C109.354 25.5952 111.337 26.164 112.612 27.4438C113.887 28.7235 114.454 30.7143 114.454 33.5582V40.5258C114.454 42.2321 114.879 43.3697 116.012 43.9385V45.6448C114.596 45.6448 113.604 45.5026 112.896 45.076C112.471 44.6495 111.904 43.9385 111.621 43.0853ZM111.337 35.8333C110.204 35.5489 109.496 35.4067 109.071 35.4067C107.371 35.4067 105.954 35.8333 104.821 36.6865C103.687 37.5397 103.121 38.535 103.121 39.8148C103.121 41.8055 104.254 42.8009 106.662 42.8009C108.362 42.8009 109.921 41.9477 111.337 40.3836V35.8333Z" fill="#020203"/>
<path d="M134.571 27.5861L132.871 29.8612C132.446 29.5768 131.879 29.1502 131.029 28.8658C130.179 28.5814 129.329 28.4392 128.479 28.4392C126.637 28.4392 125.079 29.1502 124.087 30.43C122.954 31.7097 122.387 33.5583 122.387 35.8334C122.387 38.1086 122.954 39.8149 124.087 40.9525C125.221 42.09 126.779 42.801 128.762 42.801C130.321 42.801 131.879 42.2322 133.437 40.9525L134.712 43.7964C132.871 44.934 130.604 45.5027 127.912 45.5027C125.221 45.5027 123.096 44.6496 121.396 42.801C119.696 41.0947 118.846 38.6773 118.846 35.6912C118.846 32.5629 119.696 30.1456 121.537 28.297C123.379 26.4485 125.787 25.4531 128.904 25.4531C129.896 25.4531 131.029 25.5953 132.162 26.0219C133.154 26.7329 134.004 27.0173 134.571 27.5861Z" fill="#020203"/>
<path d="M168.287 1.13751C168.287 11.2334 185.146 20.334 185.146 33.416C185.146 41.9477 178.346 48.4887 168.712 49.0575C168.712 49.0575 167.862 49.0575 167.154 49.0575C166.446 49.0575 165.596 49.0575 165.596 49.0575C156.246 48.3465 149.162 41.9477 149.162 33.416C149.162 20.334 166.162 11.2334 166.162 1.13751C166.304 -6.09756e-05 168.287 -0.142257 168.287 1.13751Z" fill="#8E744A"/>
<path d="M166.021 1.13757C166.021 5.83003 162.337 10.2381 158.371 14.9306C153.837 20.4762 149.021 26.3062 149.021 33.416C149.021 41.8056 155.962 48.4888 165.596 49.1998L167.154 49.342L168.712 49.1998C178.487 48.631 185.287 42.09 185.287 33.416C185.287 26.3062 180.471 20.6184 175.937 14.9306C171.971 10.2381 168.287 5.68784 168.287 1.13757C168.287 0.710979 168.146 0.426588 167.862 0.284392C167.579 0.142196 167.296 0 167.012 0C166.729 0 166.021 0.426588 166.021 1.13757ZM165.737 48.9154C156.387 48.2044 149.446 41.8056 149.446 33.5582C149.446 26.5906 154.121 20.9028 158.654 15.3572C162.621 10.5225 166.304 5.97223 166.304 1.27976C166.304 0.710979 166.729 0.568784 167.154 0.568784C167.296 0.568784 167.579 0.568784 167.721 0.710979C167.862 0.853175 168.004 0.995371 168.004 1.27976C168.004 6.11442 171.687 10.6647 175.654 15.3572C180.187 20.9028 184.862 26.5906 184.862 33.5582C184.862 42.09 178.204 48.4888 168.712 48.9154H167.154H165.737Z" fill="#020203"/>
<path d="M163.612 18.9121C164.604 18.9121 166.729 18.9121 169.704 18.9121C170.979 18.9121 172.396 18.9121 173.671 19.0543C176.362 19.3387 178.771 21.1872 179.904 23.6046C181.037 26.0219 180.612 29.719 179.196 31.7097C177.354 34.4115 175.371 35.2646 172.962 35.6912C171.262 35.9756 169.846 35.8334 168.146 35.8334C167.154 40.8103 166.162 45.3605 166.162 45.3605H158.654L163.046 25.5953H169.987L168.996 31.2831C170.979 31.2831 172.396 29.719 172.537 27.7283C172.537 26.7329 172.537 25.3109 171.546 24.7421C170.837 24.3156 167.721 24.4577 167.012 24.4577H163.612C161.912 24.4577 160.921 23.7468 160.071 22.3248C159.504 21.3294 158.796 20.1919 158.512 18.9121C160.071 19.0543 162.904 18.9121 163.612 18.9121Z" fill="white"/>
<path d="M163.612 18.7698H159.646H158.087L158.229 19.0542C158.512 20.3339 159.221 21.6137 159.787 22.4669C160.637 23.7466 161.629 24.5998 163.471 24.5998H166.871H167.296C168.287 24.5998 170.837 24.5998 171.262 24.8842C171.829 25.1686 172.112 26.0218 172.112 27.1593C172.112 27.3015 172.112 27.4437 172.112 27.7281C171.971 29.7189 170.837 30.9986 169.137 31.1408C169.137 30.7142 170.129 25.5952 170.129 25.5952H162.621L158.229 45.787H166.162C166.162 45.787 168.004 36.6865 168.146 36.2599H168.996C170.412 36.2599 171.546 36.2599 172.821 36.1177C175.654 35.6911 177.496 34.5535 179.196 31.994C180.754 29.7189 181.037 26.0218 179.904 23.6044C178.629 21.0449 176.079 19.1964 173.387 18.912C172.112 18.7698 170.696 18.7698 169.421 18.7698H164.321H163.612ZM159.646 19.1964H164.462H169.562C170.837 19.1964 172.254 19.1964 173.529 19.3386C176.079 19.623 178.487 21.3293 179.621 23.7466C180.754 26.0218 180.471 29.5767 178.912 31.7096C177.212 34.1269 175.512 35.2645 172.821 35.6911C171.546 35.8333 170.412 35.8333 168.996 35.8333H167.721V35.9755C167.721 35.9755 165.879 44.9338 165.737 45.3604C165.454 45.3604 159.221 45.3604 158.654 45.3604C158.796 44.7916 162.904 26.4484 162.904 26.164C163.187 26.164 168.996 26.164 169.562 26.164C169.421 26.5905 168.571 31.8518 168.571 31.8518H168.854C170.837 31.8518 172.396 30.2876 172.537 28.0125C172.679 26.3062 172.254 25.3108 171.546 24.742C170.979 24.4576 169.137 24.4576 167.296 24.4576H166.871H163.471C161.771 24.4576 160.921 23.6044 160.071 22.4669C159.504 21.6137 158.937 20.6183 158.654 19.4808H159.646V19.1964Z" fill="#020203"/>
</g>
<defs>
<clipPath id="clip0">
<rect width="184.45" height="49.342" fill="white" transform="translate(0.979004)"/>
</clipPath>
</defs>
</svg>
