<?xml version="1.0" encoding="UTF-8"?>
<svg width="256px" height="83px" viewBox="0 0 256 83" version="1.1" xmlns="http://www.w3.org/2000/svg" xmlns:xlink="http://www.w3.org/1999/xlink">
    <defs>
        <polygon id="path-1" points="0 82 257 82 257 0 0 0"></polygon>
    </defs>
    <g id="--COMPONENTS-/-Atoms-/-Logo-/-Longversion-/-Green" stroke="none" stroke-width="1" fill="none" fill-rule="evenodd">
        <g id="Group-12" transform="translate(0.000000, 1.000000)">
            <path d="M124.251495,33.300905 L111.935785,33.300905 C110.498329,33.300905 110.226073,33.3792214 110.226073,34.6792725 L110.226073,35.1904646 C110.226073,35.9394535 110.654911,36.1359563 111.702321,36.3331711 C111.702321,36.3331711 119.511699,37.7905669 120.405348,37.9471995 C125.066853,38.8528211 126,40.6647763 126,44.5243477 L126,47.8321448 C126,52.7155242 123.824067,55.0386715 116.947836,54.9995133 C111.702321,54.9995133 103.19467,54.3694228 103.19467,54.3694228 L103.272961,48.6978963 L116.054187,48.6978963 C118.230121,48.6978963 118.967892,48.3048907 118.967892,46.6502801 L118.967892,45.4691274 C118.967892,44.8789071 118.851513,44.3271329 117.957864,44.1697883 C117.025422,43.9732854 111.120427,42.9096072 110.498329,42.7914208 C105.409396,41.8857992 103,41.5312398 103,36.6087022 L103,34.0883402 C103,29.1658026 105.33181,27 112.208041,27 C117.45285,27 124.329081,27.6300905 124.329081,27.6300905 L124.251495,33.300905 Z" id="Fill-1" fill="#22505F"></path>
            <path d="M139.136371,42.0432357 L145.864343,42.0432357 L143.071142,32.4002789 L141.930287,32.4002789 L139.136371,42.0432357 Z M147.438108,47.8675035 L137.601182,47.8675035 L135.790959,54 L128,54 C128,54 135.870969,29.7001395 136.421037,28.0794979 C136.736076,27.0376569 136.853948,27 138.270551,27 L146.769454,27 C148.186057,27 148.303929,27.0376569 148.618253,28.0794979 C149.130459,29.7001395 157,54 157,54 L149.248331,54 L147.438108,47.8675035 Z" id="Fill-3" fill="#22505F"></path>
            <mask id="mask-2" fill="white">
                <use xlink:href="#path-1"></use>
            </mask>
            <g id="Clip-6"></g>
            <polygon id="Fill-5" fill="#22505F" mask="url(#mask-2)" points="160 54 167 54 167 27 160 27"></polygon>
            <path d="M188.866895,37.7224547 L188.866895,35.4086471 C188.866895,33.6722455 188.078462,32.7085077 186.029393,32.7085077 L179.13382,32.7085077 L179.13382,40.4225941 L186.029393,40.4225941 C188.078462,40.4225941 188.866895,39.4198047 188.866895,37.7224547 Z M179.13382,54 L172,54 L172,27 L187.960411,27 C193.281264,27 196,29.9693166 196,33.9804742 L196,39.111576 C196,43.1227336 193.281264,46.1311018 187.960411,46.1311018 L179.13382,46.1311018 L179.13382,54 Z" id="Fill-7" fill="#22505F" mask="url(#mask-2)"></path>
            <polygon id="Fill-8" fill="#22505F" mask="url(#mask-2)" points="200 27 221 27 221 32.7085077 207.158438 32.7085077 207.158438 37.4142259 218.903446 37.4142259 218.903446 43.2775453 207.158438 43.2775453 207.158438 47.944212 220.959792 47.944212 220.959792 54 200 54"></polygon>
            <path d="M247.70805,27.3472803 C247.70805,27.3472803 247.785051,27 248.170758,27 L257,27 L257,54 L250.021587,54 L250.021587,39.3430962 L249.635881,39.3430962 L244.893305,53.4979079 C244.893305,53.4979079 244.777103,54 244.314395,54 L238.724105,54 C238.222197,54 238.106695,53.4979079 238.106695,53.4979079 L233.365519,39.3430962 L232.979113,39.3430962 L232.979113,54 L226,54 L226,27 L234.830642,27 C235.214949,27 235.29335,27.3472803 235.29335,27.3472803 L241.346348,43.3933054 L241.655053,43.3933054 L247.70805,27.3472803 Z" id="Fill-9" fill="#22505F" mask="url(#mask-2)"></path>
            <polygon id="Fill-10" fill="#E98300" mask="url(#mask-2)" points="18 30 18 43.8800592 64 53 64 39.1213886"></polygon>
            <path d="M68.2376041,68.1451735 L43.0159649,68.2334838 L43.0159649,82 L82,82 L82,42.1996071 L68.2376041,39.5100286 L68.2376041,68.1451735 Z M43.0159649,0 L43.0159649,13.6485336 L68.2376041,13.6485336 L68.2376041,20.4724472 L82,20.4724472 L82,0 L43.0159649,0 Z M13.6472382,61.4166351 L0,61.4166351 L0,82 L38.9854481,82 L38.9854481,68.2334838 L13.6472382,68.2334838 L13.6472382,61.4166351 Z M0,39.7926216 L13.6472382,42.4447565 L13.6472382,13.6485336 L38.9854481,13.6485336 L38.9854481,0 L0,0 L0,39.7926216 Z" id="Fill-11" fill="#22505F" mask="url(#mask-2)"></path>
        </g>
    </g>
</svg>