<svg xmlns="http://www.w3.org/2000/svg" width="382" height="34" viewBox="0 0 382 34">
  <metadata><?xpacket begin="﻿" id="W5M0MpCehiHzreSzNTczkc9d"?>
<x:xmpmeta xmlns:x="adobe:ns:meta/" x:xmptk="Adobe XMP Core 5.6-c138 79.159824, 2016/09/14-01:09:01        ">
   <rdf:RDF xmlns:rdf="http://www.w3.org/1999/02/22-rdf-syntax-ns#">
      <rdf:Description rdf:about=""/>
   </rdf:RDF>
</x:xmpmeta>
                                                                                                    
                                                                                                    
                                                                                                    
                                                                                                    
                                                                                                    
                                                                                                    
                                                                                                    
                                                                                                    
                                                                                                    
                                                                                                    
                                                                                                    
                                                                                                    
                                                                                                    
                                                                                                    
                                                                                                    
                                                                                                    
                                                                                                    
                                                                                                    
                                                                                                    
                                                                                                    
                           
<?xpacket end="w"?></metadata>
<defs>
    <style>
      .cls-1 {
        fill: #fff;
      }

      .cls-1, .cls-2 {
        fill-rule: evenodd;
      }

      .cls-2 {
        fill: #9bcd41;
      }
    </style>
  </defs>
  <g id="suez-water-logo-tag">
    <path id="Water_Technologies_Solutions" data-name="Water Technologies &amp; Solutions" class="cls-1" d="M501.387,936.024h-2.32l-1.776,7.184-2.08-7.184h-1.664l-2.08,7.184-1.76-7.184h-2.32l3.04,11.392h1.856l2.1-6.912,2.1,6.912h1.856Zm6.928,11.392v-5.488q0-2.943-3.552-2.944a4.879,4.879,0,0,0-1.712.256,3.374,3.374,0,0,0-1.28.928l1.312,1.3a2.188,2.188,0,0,1,.688-0.552,2.122,2.122,0,0,1,.912-0.168,1.816,1.816,0,0,1,1.192.312,1.258,1.258,0,0,1,.36,1v0.416H504.3a3.845,3.845,0,0,0-1.28.192,2.53,2.53,0,0,0-.9.52,2.107,2.107,0,0,0-.528.768,2.489,2.489,0,0,0-.176.936,2.98,2.98,0,0,0,.176,1.04,2.361,2.361,0,0,0,.512.832,2.879,2.879,0,0,0,2.128.736,3.061,3.061,0,0,0,1.176-.192,2.752,2.752,0,0,0,.872-0.608v0.72h2.032Zm-2.08-3.072a2.385,2.385,0,0,1-.072.648,0.86,0.86,0,0,1-.248.408,1.279,1.279,0,0,1-.56.328,2.79,2.79,0,0,1-.672.072,1.472,1.472,0,0,1-.96-0.256,0.851,0.851,0,0,1-.3-0.688,0.987,0.987,0,0,1,1.232-.96h1.584v0.448Zm7.9,3.072v-1.76h-0.752a0.651,0.651,0,0,1-.72-0.752v-4h1.472V939.32h-1.472v-2.464h-2.08v2.464h-0.88V940.9h0.88v4.128a2.853,2.853,0,0,0,.136.872,2.123,2.123,0,0,0,.432.76,2.2,2.2,0,0,0,.752.544,2.624,2.624,0,0,0,1.1.208h1.136Zm8.576-3.52v-0.88a5.267,5.267,0,0,0-.24-1.624,3.629,3.629,0,0,0-.7-1.28,3.158,3.158,0,0,0-1.144-.832,3.838,3.838,0,0,0-1.544-.3,3.787,3.787,0,0,0-1.48.28,3.146,3.146,0,0,0-1.144.824,3.816,3.816,0,0,0-.744,1.336,6.6,6.6,0,0,0,.064,3.9,3.477,3.477,0,0,0,.864,1.312,2.981,2.981,0,0,0,1.232.68,5.364,5.364,0,0,0,1.432.192,5.69,5.69,0,0,0,1.008-.08,3.506,3.506,0,0,0,.824-0.248,3.341,3.341,0,0,0,.7-0.416,6.543,6.543,0,0,0,.64-0.568l-1.264-1.232a3.282,3.282,0,0,1-.8.584,2.448,2.448,0,0,1-1.088.2,1.728,1.728,0,0,1-1.36-.52,1.932,1.932,0,0,1-.464-1.336h5.216Zm-5.216-1.424c0.011-.181.027-0.338,0.048-0.472a1.531,1.531,0,0,1,.144-0.424,1.621,1.621,0,0,1,.52-0.616,1.657,1.657,0,0,1,1.744,0,1.6,1.6,0,0,1,.52.616,1.468,1.468,0,0,1,.144.424,4.474,4.474,0,0,1,.048.472H517.5Zm13.072-2.7a2.585,2.585,0,0,0-.9-0.608,3.019,3.019,0,0,0-1.072-.176,2.852,2.852,0,0,0-1.232.264,2.466,2.466,0,0,0-.864.632v-0.8h-2.032v8.336h2.08v-5.024a1.786,1.786,0,0,1,.12-0.688,1.466,1.466,0,0,1,.312-0.48,1.187,1.187,0,0,1,.432-0.28,1.4,1.4,0,0,1,.48-0.088,1.328,1.328,0,0,1,.624.128,2.081,2.081,0,0,1,.48.368Zm12.064-1.76v-1.984h-8.176v1.984h2.976v9.408h2.224v-9.408h2.976Zm7.056,5.888v-0.88a5.267,5.267,0,0,0-.24-1.624,3.644,3.644,0,0,0-.7-1.28,3.167,3.167,0,0,0-1.144-.832,3.838,3.838,0,0,0-1.544-.3,3.787,3.787,0,0,0-1.48.28,3.138,3.138,0,0,0-1.144.824,3.816,3.816,0,0,0-.744,1.336,6.6,6.6,0,0,0,.064,3.9,3.477,3.477,0,0,0,.864,1.312,2.975,2.975,0,0,0,1.232.68,5.358,5.358,0,0,0,1.432.192,5.706,5.706,0,0,0,1.008-.08,3.521,3.521,0,0,0,.824-0.248,3.341,3.341,0,0,0,.7-0.416,6.661,6.661,0,0,0,.64-0.568l-1.264-1.232a3.3,3.3,0,0,1-.8.584,2.451,2.451,0,0,1-1.088.2,1.727,1.727,0,0,1-1.36-.52,1.932,1.932,0,0,1-.464-1.336h5.216Zm-5.216-1.424c0.011-.181.027-0.338,0.048-0.472a1.468,1.468,0,0,1,.144-0.424,1.612,1.612,0,0,1,.52-0.616,1.657,1.657,0,0,1,1.744,0,1.612,1.612,0,0,1,.52.616,1.468,1.468,0,0,1,.144.424c0.021,0.134.037,0.291,0.048,0.472h-3.168Zm11.632,2.512a2.219,2.219,0,0,1-.624.5,1.586,1.586,0,0,1-.72.152,1.456,1.456,0,0,1-1.184-.544,2.957,2.957,0,0,1-.464-1.856,4.492,4.492,0,0,1,.112-1.1,1.961,1.961,0,0,1,.352-0.736,1.458,1.458,0,0,1,1.184-.544,1.6,1.6,0,0,1,.72.152,2.255,2.255,0,0,1,.624.5l1.408-1.408a3.645,3.645,0,0,0-1.224-.848,4.013,4.013,0,0,0-1.528-.272,4.624,4.624,0,0,0-1.288.192,3.048,3.048,0,0,0-1.2.672,3.618,3.618,0,0,0-.888,1.3,6.369,6.369,0,0,0,0,4.176,3.688,3.688,0,0,0,.888,1.312,2.994,2.994,0,0,0,1.2.68,4.624,4.624,0,0,0,1.288.192,3.9,3.9,0,0,0,1.528-.28,3.73,3.73,0,0,0,1.224-.856Zm9.792,2.432v-5.328a4.593,4.593,0,0,0-.168-1.272,2.564,2.564,0,0,0-.68-1.1,2.434,2.434,0,0,0-.848-0.544,3.084,3.084,0,0,0-1.12-.192,2.849,2.849,0,0,0-1.12.216,2.615,2.615,0,0,0-.912.648v-3.824h-2.08v11.392h2.08v-5.04a1.764,1.764,0,0,1,.128-0.72,1.314,1.314,0,0,1,.328-0.464,1.262,1.262,0,0,1,.448-0.256,1.528,1.528,0,0,1,.976,0,1.279,1.279,0,0,1,.448.256,1.251,1.251,0,0,1,.32.464,1.88,1.88,0,0,1,.12.72v5.04h2.08Zm9.008,0v-5.328a4.593,4.593,0,0,0-.168-1.272,2.564,2.564,0,0,0-.68-1.1,2.434,2.434,0,0,0-.848-0.544,3.084,3.084,0,0,0-1.12-.192,3.007,3.007,0,0,0-1.12.216,2.7,2.7,0,0,0-.96.648V939.08h-2.032v8.336h2.08v-5.04a1.764,1.764,0,0,1,.128-0.72,1.314,1.314,0,0,1,.328-0.464,1.262,1.262,0,0,1,.448-0.256,1.528,1.528,0,0,1,.976,0,1.279,1.279,0,0,1,.448.256,1.251,1.251,0,0,1,.32.464,1.88,1.88,0,0,1,.12.72v5.04h2.08Zm8.592-6.056a3.141,3.141,0,0,0-.752-1.352,3.656,3.656,0,0,0-5.168,0,3.131,3.131,0,0,0-.752,1.352,7.693,7.693,0,0,0-.192,1.88,7.786,7.786,0,0,0,.192,1.888,3.118,3.118,0,0,0,.752,1.36,3.4,3.4,0,0,0,2.576,1.024,3.583,3.583,0,0,0,1.56-.3,3.528,3.528,0,0,0,1.032-.72,2.887,2.887,0,0,0,.76-1.352,8.252,8.252,0,0,0,.184-1.9A7.693,7.693,0,0,0,583.5,941.36Zm-1.968,3.064a1.478,1.478,0,0,1-.4.848,1.318,1.318,0,0,1-.976.368,1.3,1.3,0,0,1-.96-0.368,1.466,1.466,0,0,1-.4-0.848,7.856,7.856,0,0,1-.08-1.184,7.748,7.748,0,0,1,.08-1.168,1.469,1.469,0,0,1,.4-0.848,1.3,1.3,0,0,1,.96-0.368,1.322,1.322,0,0,1,.976.368,1.481,1.481,0,0,1,.4.848,7.881,7.881,0,0,1,.08,1.168A7.989,7.989,0,0,1,581.53,944.424Zm7.52,2.992v-1.76h-0.8a0.722,0.722,0,0,1-.568-0.192,0.825,0.825,0,0,1-.168-0.56v-8.88h-2.08v9.008a2.823,2.823,0,0,0,.136.872,2.093,2.093,0,0,0,.432.76,2.169,2.169,0,0,0,.76.544,2.675,2.675,0,0,0,1.1.208h1.184Zm8.016-6.056a3.141,3.141,0,0,0-.752-1.352,3.656,3.656,0,0,0-5.168,0,3.131,3.131,0,0,0-.752,1.352,7.693,7.693,0,0,0-.192,1.88,7.786,7.786,0,0,0,.192,1.888,3.118,3.118,0,0,0,.752,1.36,3.4,3.4,0,0,0,2.576,1.024,3.583,3.583,0,0,0,1.56-.3,3.528,3.528,0,0,0,1.032-.72,2.887,2.887,0,0,0,.76-1.352,8.252,8.252,0,0,0,.184-1.9A7.693,7.693,0,0,0,597.066,941.36Zm-1.968,3.064a1.478,1.478,0,0,1-.4.848,1.318,1.318,0,0,1-.976.368,1.3,1.3,0,0,1-.96-0.368,1.466,1.466,0,0,1-.4-0.848,7.856,7.856,0,0,1-.08-1.184,7.748,7.748,0,0,1,.08-1.168,1.469,1.469,0,0,1,.4-0.848,1.3,1.3,0,0,1,.96-0.368,1.322,1.322,0,0,1,.976.368,1.481,1.481,0,0,1,.4.848,7.881,7.881,0,0,1,.08,1.168A7.989,7.989,0,0,1,595.1,944.424Zm10.528-5.344H603.61v0.784a2.642,2.642,0,0,0-.9-0.68,2.877,2.877,0,0,0-1.136-.2,3.227,3.227,0,0,0-1.128.192,2.378,2.378,0,0,0-.872.544,2.456,2.456,0,0,0-.464.64,2.934,2.934,0,0,0-.256.76,6.136,6.136,0,0,0-.1.88q-0.024.473-.024,1.016t0.024,1.024a6.15,6.15,0,0,0,.1.888,2.921,2.921,0,0,0,.256.76,2.439,2.439,0,0,0,.464.64,2.373,2.373,0,0,0,.864.544,3.162,3.162,0,0,0,1.12.192,3.016,3.016,0,0,0,1.088-.184,2.331,2.331,0,0,0,.9-0.648v0.848a2.34,2.34,0,0,1-.088.632,1.488,1.488,0,0,1-.288.552,1.509,1.509,0,0,1-.52.392,1.812,1.812,0,0,1-.784.152,2.4,2.4,0,0,1-.9-0.152,2.31,2.31,0,0,1-.728-0.488l-1.3,1.312a3.632,3.632,0,0,0,1.36.856,5.322,5.322,0,0,0,1.664.232,4.26,4.26,0,0,0,1.512-.256,3.32,3.32,0,0,0,1.16-.72,3.147,3.147,0,0,0,.736-1.1,3.662,3.662,0,0,0,.256-1.384V939.08Zm-2.12,4.744a2.117,2.117,0,0,1-.184.7,1.191,1.191,0,0,1-.416.488,1.564,1.564,0,0,1-1.472,0,1.124,1.124,0,0,1-.408-0.488,2.221,2.221,0,0,1-.176-0.7,8.181,8.181,0,0,1,0-1.616,2.149,2.149,0,0,1,.176-0.688,1.143,1.143,0,0,1,.408-0.48,1.564,1.564,0,0,1,1.472,0,1.214,1.214,0,0,1,.416.48,2.05,2.05,0,0,1,.184.688c0.026,0.262.04,0.531,0.04,0.808S603.532,943.563,603.506,943.824Zm6.376,3.592v-8.1H607.8v8.1h2.08Zm0.016-9.76v-1.7H607.77v1.7H609.9Zm8.991,6.24v-0.88a5.267,5.267,0,0,0-.24-1.624,3.629,3.629,0,0,0-.7-1.28,3.158,3.158,0,0,0-1.144-.832,3.838,3.838,0,0,0-1.544-.3,3.787,3.787,0,0,0-1.48.28,3.146,3.146,0,0,0-1.144.824,3.816,3.816,0,0,0-.744,1.336,6.6,6.6,0,0,0,.064,3.9,3.477,3.477,0,0,0,.864,1.312,2.981,2.981,0,0,0,1.232.68,5.364,5.364,0,0,0,1.432.192,5.69,5.69,0,0,0,1.008-.08,3.506,3.506,0,0,0,.824-0.248,3.341,3.341,0,0,0,.7-0.416,6.543,6.543,0,0,0,.64-0.568l-1.264-1.232a3.282,3.282,0,0,1-.8.584,2.448,2.448,0,0,1-1.088.2,1.728,1.728,0,0,1-1.36-.52,1.932,1.932,0,0,1-.464-1.336h5.216Zm-5.216-1.424c0.011-.181.027-0.338,0.048-0.472a1.531,1.531,0,0,1,.144-0.424,1.621,1.621,0,0,1,.52-0.616,1.657,1.657,0,0,1,1.744,0,1.6,1.6,0,0,1,.52.616,1.468,1.468,0,0,1,.144.424,4.474,4.474,0,0,1,.048.472h-3.168ZM626.3,943.1a2.962,2.962,0,0,0-1.864-.752l-1.312-.128a1.192,1.192,0,0,1-.664-0.224,0.625,0.625,0,0,1-.2-0.5,0.722,0.722,0,0,1,.28-0.56,1.38,1.38,0,0,1,.9-0.24,4.577,4.577,0,0,1,1.064.12,2.02,2.02,0,0,1,.872.44l1.28-1.3a3.265,3.265,0,0,0-1.4-.768,7.059,7.059,0,0,0-1.784-.208,4.413,4.413,0,0,0-1.224.168,3.073,3.073,0,0,0-1.024.5,2.539,2.539,0,0,0-.7.832,2.418,2.418,0,0,0-.264,1.152,2.066,2.066,0,0,0,.648,1.688,3.181,3.181,0,0,0,1.752.648l1.344,0.128a1.077,1.077,0,0,1,.7.248,0.738,0.738,0,0,1,.184.52,0.615,0.615,0,0,1-.128.4,0.973,0.973,0,0,1-.336.264,1.721,1.721,0,0,1-.472.152,2.985,2.985,0,0,1-.536.048c-0.16,0-.333-0.008-0.52-0.024a2.881,2.881,0,0,1-.576-0.112,3.127,3.127,0,0,1-.584-0.24,2.258,2.258,0,0,1-.544-0.408l-1.36,1.36a3.651,3.651,0,0,0,.824.632,4.278,4.278,0,0,0,.864.36,4.577,4.577,0,0,0,.9.168q0.465,0.041.96,0.04a5.5,5.5,0,0,0,1.384-.168,3.463,3.463,0,0,0,1.128-.5,2.383,2.383,0,0,0,.752-0.848,2.512,2.512,0,0,0,.272-1.2A2.308,2.308,0,0,0,626.3,943.1Zm15.72,4.32L639.977,945a4.077,4.077,0,0,0,.88-1.552,8.39,8.39,0,0,0,.336-1.984h-1.968a5.429,5.429,0,0,1-.168,1.12,2.58,2.58,0,0,1-.408.88l-1.92-2.272,0.816-.592a3.534,3.534,0,0,0,.848-0.848,1.954,1.954,0,0,0,.32-1.136,2.847,2.847,0,0,0-.2-1.072,2.378,2.378,0,0,0-.584-0.856,2.728,2.728,0,0,0-.92-0.56,3.443,3.443,0,0,0-1.208-.2,3.8,3.8,0,0,0-1.28.2,2.853,2.853,0,0,0-.952.552,2.372,2.372,0,0,0-.6.84,2.682,2.682,0,0,0-.208,1.064,2.5,2.5,0,0,0,.112.768,3.4,3.4,0,0,0,.28.648,4.451,4.451,0,0,0,.368.552c0.133,0.171.259,0.32,0.376,0.448a8.27,8.27,0,0,0-.736.544,4.218,4.218,0,0,0-.656.68,3.556,3.556,0,0,0-.472.832,2.644,2.644,0,0,0-.184,1,3.392,3.392,0,0,0,.936,2.536,3.876,3.876,0,0,0,2.824.92,4.594,4.594,0,0,0,1.04-.1,4.216,4.216,0,0,0,.8-0.264,3.471,3.471,0,0,0,.616-0.352c0.176-.128.339-0.25,0.488-0.368l0.832,0.992h2.64Zm-4.736-2.464a2.831,2.831,0,0,1-.792.512,2.372,2.372,0,0,1-.9.16,1.88,1.88,0,0,1-.68-0.12,1.741,1.741,0,0,1-.544-0.328,1.507,1.507,0,0,1-.368-0.5,1.526,1.526,0,0,1-.136-0.648,1.5,1.5,0,0,1,.32-0.992,4.5,4.5,0,0,1,.832-0.752Zm-0.736-5.784a2.374,2.374,0,0,1-.464.424l-0.48.32q-0.3-.351-0.528-0.656a1.041,1.041,0,0,1-.224-0.624,0.951,0.951,0,0,1,.24-0.664,1.06,1.06,0,0,1,1.4,0,0.934,0.934,0,0,1,.248.664A0.814,0.814,0,0,1,636.553,939.168ZM654.3,942.68a2.4,2.4,0,0,0-.672-1.024,2.646,2.646,0,0,0-.88-0.576,5.669,5.669,0,0,0-1.3-.32l-1.36-.208a2.176,2.176,0,0,1-.616-0.16,1.568,1.568,0,0,1-.424-0.272,1,1,0,0,1-.248-0.384,1.306,1.306,0,0,1-.072-0.432,1.386,1.386,0,0,1,.424-1.016,1.8,1.8,0,0,1,1.32-.424,5.612,5.612,0,0,1,1.184.136,2.38,2.38,0,0,1,1.152.648l1.408-1.392a4.334,4.334,0,0,0-1.616-1.024,6.347,6.347,0,0,0-2.064-.3,5.06,5.06,0,0,0-1.664.256,3.656,3.656,0,0,0-1.248.712,3.049,3.049,0,0,0-.784,1.088,3.5,3.5,0,0,0-.272,1.4,2.96,2.96,0,0,0,.816,2.24,3.088,3.088,0,0,0,.912.6,5.017,5.017,0,0,0,1.3.344l1.36,0.208a3.3,3.3,0,0,1,.64.144,1.26,1.26,0,0,1,.384.24,1.28,1.28,0,0,1,.352.944,1.221,1.221,0,0,1-.512,1.056,2.594,2.594,0,0,1-1.52.368,5.21,5.21,0,0,1-1.488-.208,2.894,2.894,0,0,1-1.248-.752l-1.44,1.44a4.5,4.5,0,0,0,1.848,1.176,7.5,7.5,0,0,0,2.312.328,5.805,5.805,0,0,0,1.672-.232,4.058,4.058,0,0,0,1.344-.672,3.117,3.117,0,0,0,.888-1.08,3.25,3.25,0,0,0,.32-1.472A4.259,4.259,0,0,0,654.3,942.68Zm8.5-1.32a3.141,3.141,0,0,0-.752-1.352,3.656,3.656,0,0,0-5.168,0,3.131,3.131,0,0,0-.752,1.352,7.693,7.693,0,0,0-.192,1.88,7.786,7.786,0,0,0,.192,1.888,3.118,3.118,0,0,0,.752,1.36,3.4,3.4,0,0,0,2.576,1.024,3.583,3.583,0,0,0,1.56-.3,3.528,3.528,0,0,0,1.032-.72,2.887,2.887,0,0,0,.76-1.352,8.252,8.252,0,0,0,.184-1.9A7.693,7.693,0,0,0,662.793,941.36Zm-1.968,3.064a1.478,1.478,0,0,1-.4.848,1.318,1.318,0,0,1-.976.368,1.3,1.3,0,0,1-.96-0.368,1.466,1.466,0,0,1-.4-0.848,7.856,7.856,0,0,1-.08-1.184,7.748,7.748,0,0,1,.08-1.168,1.469,1.469,0,0,1,.4-0.848,1.3,1.3,0,0,1,.96-0.368,1.322,1.322,0,0,1,.976.368,1.481,1.481,0,0,1,.4.848,7.881,7.881,0,0,1,.08,1.168A7.989,7.989,0,0,1,660.825,944.424Zm7.52,2.992v-1.76h-0.8a0.722,0.722,0,0,1-.568-0.192,0.825,0.825,0,0,1-.168-0.56v-8.88h-2.08v9.008a2.823,2.823,0,0,0,.136.872,2.093,2.093,0,0,0,.432.76,2.169,2.169,0,0,0,.76.544,2.675,2.675,0,0,0,1.1.208h1.184Zm8.336,0V939.08H674.6v5.04a1.781,1.781,0,0,1-.128.72,1.33,1.33,0,0,1-.328.464,1.249,1.249,0,0,1-.448.256,1.528,1.528,0,0,1-.976,0,1.215,1.215,0,0,1-.768-0.72,1.88,1.88,0,0,1-.12-0.72v-5.04h-2.08v5.328a4.583,4.583,0,0,0,.168,1.272,2.542,2.542,0,0,0,.68,1.1,2.4,2.4,0,0,0,.848.544,3.081,3.081,0,0,0,1.12.192,3.01,3.01,0,0,0,1.12-.216,2.719,2.719,0,0,0,.96-0.648v0.768h2.032Zm5.92,0v-1.76h-0.752a0.651,0.651,0,0,1-.72-0.752v-4H682.6V939.32h-1.472v-2.464h-2.08v2.464h-0.88V940.9h0.88v4.128a2.823,2.823,0,0,0,.136.872,2.093,2.093,0,0,0,.432.76,2.192,2.192,0,0,0,.752.544,2.62,2.62,0,0,0,1.1.208H682.6Zm3.807,0v-8.1h-2.08v8.1h2.08Zm0.016-9.76v-1.7H684.3v1.7h2.128Zm8.656,3.7a3.131,3.131,0,0,0-.752-1.352,3.539,3.539,0,0,0-1.032-.72,3.591,3.591,0,0,0-1.56-.3,3.542,3.542,0,0,0-1.552.3,3.591,3.591,0,0,0-1.024.72,3.141,3.141,0,0,0-.752,1.352,7.693,7.693,0,0,0-.192,1.88,7.786,7.786,0,0,0,.192,1.888,3.129,3.129,0,0,0,.752,1.36,3.885,3.885,0,0,0,4.136.72,3.5,3.5,0,0,0,1.032-.72,2.878,2.878,0,0,0,.76-1.352,8.2,8.2,0,0,0,.184-1.9A7.693,7.693,0,0,0,695.08,941.36Zm-1.968,3.064a1.466,1.466,0,0,1-.4.848,1.315,1.315,0,0,1-.976.368,1.3,1.3,0,0,1-.96-0.368,1.478,1.478,0,0,1-.4-0.848,7.989,7.989,0,0,1-.08-1.184,7.881,7.881,0,0,1,.08-1.168,1.481,1.481,0,0,1,.4-0.848,1.3,1.3,0,0,1,.96-0.368,1.319,1.319,0,0,1,.976.368,1.469,1.469,0,0,1,.4.848,7.748,7.748,0,0,1,.08,1.168A7.856,7.856,0,0,1,693.112,944.424Zm10.912,2.992v-5.328a4.593,4.593,0,0,0-.168-1.272,2.554,2.554,0,0,0-.68-1.1,2.415,2.415,0,0,0-.848-0.544,3.081,3.081,0,0,0-1.12-.192,3.01,3.01,0,0,0-1.12.216,2.719,2.719,0,0,0-.96.648V939.08H697.1v8.336h2.08v-5.04a1.781,1.781,0,0,1,.128-0.72,1.34,1.34,0,0,1,.328-0.464,1.279,1.279,0,0,1,.448-0.256,1.528,1.528,0,0,1,.976,0,1.262,1.262,0,0,1,.448.256,1.239,1.239,0,0,1,.32.464,1.88,1.88,0,0,1,.12.72v5.04h2.08Zm7.736-4.32a2.962,2.962,0,0,0-1.864-.752l-1.312-.128a1.192,1.192,0,0,1-.664-0.224,0.625,0.625,0,0,1-.2-0.5,0.722,0.722,0,0,1,.28-0.56,1.38,1.38,0,0,1,.9-0.24,4.577,4.577,0,0,1,1.064.12,2.02,2.02,0,0,1,.872.44l1.28-1.3a3.265,3.265,0,0,0-1.4-.768,7.059,7.059,0,0,0-1.784-.208,4.413,4.413,0,0,0-1.224.168,3.073,3.073,0,0,0-1.024.5,2.539,2.539,0,0,0-.7.832,2.418,2.418,0,0,0-.264,1.152,2.066,2.066,0,0,0,.648,1.688,3.181,3.181,0,0,0,1.752.648l1.344,0.128a1.077,1.077,0,0,1,.7.248,0.738,0.738,0,0,1,.184.52,0.615,0.615,0,0,1-.128.4,0.973,0.973,0,0,1-.336.264,1.721,1.721,0,0,1-.472.152,2.985,2.985,0,0,1-.536.048c-0.16,0-.333-0.008-0.52-0.024a2.881,2.881,0,0,1-.576-0.112,3.127,3.127,0,0,1-.584-0.24,2.258,2.258,0,0,1-.544-0.408l-1.36,1.36a3.651,3.651,0,0,0,.824.632,4.278,4.278,0,0,0,.864.36,4.577,4.577,0,0,0,.9.168q0.465,0.041.96,0.04a5.5,5.5,0,0,0,1.384-.168,3.463,3.463,0,0,0,1.128-.5,2.383,2.383,0,0,0,.752-0.848,2.512,2.512,0,0,0,.272-1.2A2.308,2.308,0,0,0,711.76,943.1Z" transform="translate(-332 -921)"/>
    <path class="cls-1" d="M402.729,938l-8.536-3.158a1.154,1.154,0,0,1,.405-2.228h9.266v-3.383H394.5A4.543,4.543,0,0,0,392.9,938l8.536,3.158a1.153,1.153,0,0,1-.405,2.227H390v3.384h11.127A4.521,4.521,0,0,0,402.729,938Zm47.24,5.388a1.153,1.153,0,0,1-.406-2.227L458.1,938a4.543,4.543,0,0,0-1.6-8.772h-9.361v3.383H456.4a1.153,1.153,0,0,1,.405,2.228L448.271,938a4.522,4.522,0,0,0,1.6,8.772H461v-3.384H449.969ZM419.7,939.7a4.026,4.026,0,1,1-8.052,0V929.228H408v10.719c0,3.921,2.808,7.053,7.671,7.053s7.672-3.132,7.672-7.053V929.228H419.7V939.7ZM435.063,929a9,9,0,0,0,0,18,9.368,9.368,0,0,0,7.447-3.5l-2.788-2.007a5.982,5.982,0,0,1-4.66,2.334,5.524,5.524,0,0,1-5.283-4.559h13.978a9.948,9.948,0,0,0,.089-1.264A8.8,8.8,0,0,0,435.063,929Zm-5.2,7.357a5.313,5.313,0,0,1,10.392,0H429.865Z" transform="translate(-332 -921)"/>
    <path class="cls-2" d="M369.105,935.565a2.435,2.435,0,0,1,0,4.87,4.563,4.563,0,0,1-.569-0.069,2.085,2.085,0,0,0-1.083.016,1.488,1.488,0,0,0-.919,1.377,1.553,1.553,0,0,0,.9,1.369A5.4,5.4,0,1,0,365.2,934.3s-9.467,9.8-11.7,11.74a10.821,10.821,0,0,1-7.213,2.805,10.648,10.648,0,0,1-7.609-3.176,10.862,10.862,0,0,1,7.61-18.513,14.9,14.9,0,0,1,2.227.23,1.291,1.291,0,0,0,1.345-1.285,1.307,1.307,0,0,0-1.05-1.28,13.758,13.758,0,0,0-2.524-.243,13.443,13.443,0,0,0-9.417,22.913,13.231,13.231,0,0,0,18.612.21l11.912-11.391A2.3,2.3,0,0,1,369.105,935.565Zm0,10.167a15.415,15.415,0,0,1-2.147-.255,1.481,1.481,0,0,0-1.473,1.485,1.5,1.5,0,0,0,1,1.4,10.03,10.03,0,0,0,2.618.335,10.7,10.7,0,1,0-7.635-18.129l-10.691,11.97a6.3,6.3,0,0,1-4.491,1.873,6.416,6.416,0,0,1,0-12.832,12.553,12.553,0,0,1,1.426.157,1.281,1.281,0,0,0,1.242-1.288,1.316,1.316,0,0,0-1-1.287,8.771,8.771,0,0,0-1.675-.16,8.995,8.995,0,1,0,6.636,15.007l10.438-11.13A7.7,7.7,0,1,1,369.1,945.732Zm11.228-19.045A15.712,15.712,0,0,0,369.105,922a15.9,15.9,0,0,0-12.819,6.572s-8.041,10.131-8.44,10.641a1.978,1.978,0,1,1-1.559-3.2c0.2,0,.358.022,0.524,0.022a1.281,1.281,0,0,0,1.252-1.283,1.4,1.4,0,0,0-1.618-1.337,4.576,4.576,0,1,0-.158,9.151,4.509,4.509,0,0,0,3.34-1.485l9.267-11.061a12.855,12.855,0,0,1,19.355-1.234A13.052,13.052,0,0,1,369.1,951.03a16.905,16.905,0,0,1-3.182-.372,1.493,1.493,0,0,0-.547,2.887,15.623,15.623,0,0,0,3.731.455A16.026,16.026,0,0,0,380.332,926.687Z" transform="translate(-332 -921)"/>
  </g>
</svg>
